<?xml version="1.0" encoding="utf-8"?>
<!-- Generator: Adobe Illustrator 28.0.0, SVG Export Plug-In . SVG Version: 6.00 Build 0)  -->
<svg version="1.1" id="Layer_1" xmlns="http://www.w3.org/2000/svg" xmlns:xlink="http://www.w3.org/1999/xlink" x="0px" y="0px"
	 viewBox="0 0 500 500" style="enable-background:new 0 0 500 500;" xml:space="preserve">
<style type="text/css">
	.st0{fill:#154765;}
	.st1{fill:#206895;}
	.st2{fill:#D8E7EB;}
	.st3{fill:#439FA4;}
	.st4{fill:#E89935;}
	.st5{fill:#FEFEFE;}
</style>
<g>
	<path class="st0" d="M111.2,258.8c-0.3-10.4,0.3-20.2-0.4-30.2c-2.7,0.2-5.1,1.4-7.7,0.6c-5.1-1.5-6.7-6-3.2-10
		c2.4-2.7,5.2-5.1,7.9-7.6c15.1-14.2,30.3-28.4,45.4-42.6c5-4.7,7.8-4.8,12.7-0.1c8.8,8.3,17.5,16.8,26.3,25.2
		c8.1,7.7,16.3,15.3,24.5,22.9c3.3,3,4.5,6.4,2.9,9.5c-1.5,2.9-5,3.8-9.3,2.5c-0.5-0.1-0.9-0.3-1.8-0.5c-0.1,5.9-0.8,11.7-0.1,17.6
		c2.2-0.3,2.8-1.6,3.7-2.5c13-13.1,26-26.2,39.5-38.8c4.9-4.6,8.3-4.6,13.1,0.1c12.9,12.5,25.7,25.1,38.6,37.6
		c0.9,0.9,1.6,2.1,3.4,2.5c0-3.6,0-7.1,0-10.4c-1-1-2-0.6-2.9-0.7c-5.3-0.3-7.7-4.6-5-9.2c0.8-1.3,2-2.4,3.1-3.5
		c14.8-14.1,29.6-28.1,44.3-42.1c3.7-3.5,6.6-3.7,10.8,0.2c7.4,6.8,14.6,13.9,21.9,20.8c8.4,7.9,16.7,15.9,25.2,23.7
		c2.5,2.3,3.7,4.8,2.3,8c-1.3,3.1-4.3,3.1-7.1,3.1c-1,0-1.9-0.2-3.2-0.4c0,8,0,15.9,0,24.4c3.4,0,6.9,0,10.3,0c3,0,6.1-0.2,9.1,0.1
		c7.4,0.7,12.1,5,14.5,11.9c6.2,17.8,12.1,35.7,18.2,53.5c13.1,37.8,26.1,75.5,39.4,113.2c4.9,13.8-4.6,24.5-17.2,24.5
		c-142.4-0.1-284.8-0.1-427.3,0c-9.1,0-16-5.3-17.9-12.4c-1.3-4.9-0.1-9.6,1.4-14.2c11.9-34.8,23.8-69.5,35.6-104.2
		c6.7-19.8,13-39.7,19.6-59.5c3.2-9.8,7.6-12.9,17.8-13.1C103.5,258.7,107.1,258.8,111.2,258.8z M192.6,356.4L192.6,356.4
		c-0.2-0.2-0.5-0.4-0.7-0.6c-2.1-2-3.1-4.4-3.6-7.2c0-4.2-0.1-8.4-0.1-12.6c0-0.5,0-0.9-0.1-1.4c0-0.9,0-1.9,0-2.8c0-0.5,0-1,0-1.5
		c0-9.7,0-19.4,0-29.1c0.1-2.6,0.5-5.2-0.3-7.9c-1.3,0-2.3,0-3.4,0c-21.2,0.2-42.5,0.4-63.7,0.5c-6.8,0-9.7-2.9-9.7-9.7
		c0-3.9,0-7.9,0-11.9c-3.9,0-7,0.3-10.1-0.1c-3.4-0.4-4.9,1.3-5.8,4.1c-2.3,7.4-4.6,14.7-7,22c-1.6,4.8-3.2,9.7-4.8,14.5
		c-0.4,0.4-0.7,0.8-0.5,1.5c-2.8,8.5-5.6,16.9-8.4,25.4l0.1-0.1c-0.7,0.4-0.5,1-0.6,1.6c-0.2,0.3-0.3,0.5-0.5,0.8
		c-0.2,0.7-0.3,1.4-0.5,2.1L73,344c-0.7,0.4-0.5,1-0.6,1.6c-0.2,0.3-0.3,0.5-0.5,0.8c-0.1,0.5-0.2,1-0.3,1.4
		c-0.2,0.2-0.4,0.3-0.5,0.5c-8.7,25.8-17.4,51.6-26.1,77.4c-1.8,4.9-3.5,9.9-5.4,14.8c-0.9,2.4-0.7,4.4,1.2,6.1
		c0.1,0.2,0.3,0.2,0.4,0.2c1.2,1.4,3,1.5,4.7,1.5c2.9,0,5.8,0,8.7,0c31.4-0.1,62.7-0.1,94.1-0.2c0.8,0,1.5,0,2.3,0
		c5.1,0,10.2,0,15.2,0c0.5,0,1,0,1.5,0c10.2,0,20.4,0,30.5,0c1,0,2,0,3,0c0.7,0,1.4,0,2.1,0c1,0,2,0,3,0c1.4,0,2.9,0,4.3,0
		c1.5,0,3,0,4.4,0c1,0,2,0,3,0c8.5,0,17,0,25.4,0c2.9,0,5.8,0,8.6,0c1,0,2,0,3,0c0.4,0,0.9,0,1.3,0c7.3,0,14.7,0,22,0
		c1.7,0,3.4,0,5,0.1c0.8,0,1.5,0,2.3,0c2.4,0,4.8,0,7.2,0c0.8,0,1.5,0,2.3,0c3.6,0,7.2,0,10.9,0c2.9,0,5.9,0,8.8,0
		c3.6,0,7.2,0,10.9,0c2.2,0,4.4,0,6.6,0c0.9,0,1.9,0,2.8,0c1,0,2,0,3,0l0.3,0.1l0.3-0.1c2,0,3.9,0,5.9,0c4.1,0,8.2,0,12.3,0
		c1.2,0,2.5,0,3.7,0c2.6,0,5.3,0,7.9,0c1.2,0,2.5,0,3.7,0c4.3,0,8.7,0,13,0c3.4,0.1,6.8,0.1,10.2,0.2c1.3,1.6,2.5-0.3,3.8-0.2
		c9.9,0,19.9,0,29.8,0c0.8,0,1.6,0,2.4,0c0.4,0.1,0.7-0.1,0.8-0.5c0.9,1.2,2.2,0.4,3.3,0.5c0.8,0,1.5,0,2.3,0c0.9,0,1.9,0,2.8,0
		c0.5,0,1,0,1.5,0c8.2,0.1,16.5,0.2,24.7,0.2c1.2,0,2.7,0.5,3.7-0.8c0.2,0,0.5-0.1,0.7-0.2c0.5,0.1,0.7-0.2,0.9-0.6
		c0.2-0.2,0.4-0.4,0.6-0.6c2.9-3.2,0.7-6.1-0.7-9l0.1,0c-0.2-0.8-0.1-1.7-0.9-2.3l0.1,0.1c-0.3-0.7,0-1.7-0.9-2.2l0,0
		c-0.2-0.8,0.2-1.7-0.8-2.3c0-0.2,0-0.5-0.1-0.7c0.1-0.6,0.1-1.2-0.5-1.6l0.1,0.1c-0.2-0.8-0.1-1.8-0.8-2.5c0.1-0.2,0.1-0.3-0.1-0.4
		c-0.5-1.7-1.1-3.3-1.6-5c-4.7-13.8-9.5-27.6-14.3-41.3c-2.7-7.7-5.5-15.4-8.2-23.1c-2.5-7.2-4.9-14.5-7.4-21.7
		c-3.6-10.5-7.2-20.9-10.7-31.4c-3-8.8-5.8-17.6-8.8-26.4c-0.8-2.4-1.8-4.6-4.8-4.6c-5,0-9.9,0.2-14.9,0.2c-2.1-0.6-2.1,0.8-2.1,2.2
		c0.2,4.5,0.5,9-3.2,12.6l0.1-0.1c-0.4,0.2-0.9,0.1-0.9,0.8l0-0.2c-1.7,0.2-3.3,0.5-5,0.5c-18.8-0.1-37.7-0.3-56.5-0.5
		c-1,0-2-0.3-2.3,1c0,11.9,0,23.8,0,35.7c0,7.8,0.1,15.5,0.1,23.3c0,2.6-0.4,5-2,7.2l0.1-0.1c-0.7,0.5-1.4,1.1-2.1,1.6l0.1-0.1
		c-0.6,0.2-1.2,0.1-1.6,0.8l0.1-0.1c-3.3,1-6.7,0.9-10,0.9c-14.4,0-28.7,0.1-43.1,0.1c-1.7,0-3.5,0-5.2,0c-3,0-6,0-8.9,0
		c-11,0-22.1,0-33.1,0c-9.8-0.5-19.6,0.7-29.3-0.9l0.1,0C193.6,356.5,193,356.6,192.6,356.4z M382.4,273.4c-0.9-16.6,0-33.1,0.7-50
		c-9.7-10.4-20.7-19.8-31.3-30c-10.9,10.1-21.6,20.1-32.3,30.1c0.8,2.6,0.7,5,0.7,7.4c0,7.6,0,15.3,0.1,22.9c0,2.2,0,4.3,1.9,6
		c4.6,4.3,9.2,8.7,13.7,13c1,0.9,2,1.9,3.7,0.9c0.3-8.3,0.5-16.8,0.9-25.2c0.1-2.7,0.4-5.3,0.7-8c0.2-1.9,1.6-3.3,3.2-3.4
		c4.1-0.4,8.2-0.6,12.3-0.4c3.1,0.1,5.4,2.8,5.7,5.6c0.8,8,0.6,16,0.7,24c0,2.6-0.4,5.3,0.4,7.8c5.9,1.2,11.8,0.7,17.6,0.6
		C382.3,275,382.7,274.5,382.4,273.4z M226.2,344c4.9,0,9.8,0,14.8,0c0.6-4-0.2-7.4-0.2-10.9c-0.3-12.1-0.2-24.2,0-36.3
		c0.1-4.4,4.7-9,9.1-9.6c3.2-0.4,6.5-0.8,9.8-0.5c0.3,0.3,0.6,0.3,0.8,0c1.7,0,3.4-0.1,5.1,0c6.9,0.5,12.1,5,12.2,11.1
		c0.1,10.5,0.4,21.1-0.3,31.6c-0.3,4.6-0.1,9.3-0.1,14.2c12.5,0,24.7,0,37.1,0c0-1.6,0-3,0-4.3c0-18.9-0.2-37.9,0.1-56.8
		c0.1-7.1-0.9-12.3-7-17.4c-12.7-10.6-24.2-22.7-35.9-34.6c-4.3-4.4-8.5-8.9-13.3-12.6c-0.5,0.4-0.9,0.5-1.1,0.8
		c-18,17.7-35.9,35.4-54,53.1c-1.5,1.4-2,3-1.6,4.9c0.5,2.6,0.4,5.3,0.4,8c0.1,18.7,0.1,37.4,0.2,56c0,1.1-1,2.8,1.2,3.2
		c0.3,0,0.6,0,0.9,0c5,0,10.1,0,15.1,0c1.3,0,2.5,0,3.8,0c0.7,0,1.4,0,2,0C225.6,344.1,225.9,344.1,226.2,344z M123.2,216.1
		c1.7,21.2,1.6,42.5,1.7,63.7c17,0,33.6,0,50.4,0c0.4-1.7,1.2-3.1,2.3-4.2c5.1-4.9,10.1-9.8,15.2-14.6c1.4-1.3,2-2.5,2-4.4
		c-0.1-4.8-0.1-9.7,0-14.6c0.2-8.1-0.6-16.3,0.7-24.3c0.3-2.1-1-3.1-2.2-4.2c-7.6-6.6-14.8-13.6-22.1-20.6
		c-3.8-3.7-7.8-7.2-11.8-10.9C147.1,193.6,135.2,204.9,123.2,216.1z"/>
	<path class="st1" d="M301.9,157.6c-6.4,0-12.8,0.1-19.3,0.1c-1.5,0-2.7,0.3-3.9,1.3c-8.4,6.8-15.9,14.5-24.1,21.6
		c-1.4,1.2-2.8,2.3-4.3,3.4c-2.4,1.8-4.9,1.7-7.5,0.5c-2.4-1.1-2-3.3-2-5.4c0-6.9,0-13.8,0-20.9c-3.6-1-7-1-10.2-2
		c-16.9-5.3-27.7-19.8-27.7-37.5c0-14.6,0-29.1,0-43.7c0-18.3,14.4-34.8,32.6-37.5c3-0.4,6-0.7,9-0.7c26.7,0,53.4,0,80.1,0
		c18.6,0,35,13.8,38.2,32c0.2,0.9,0.1,1.9,0.1,2.9c-0.8,0.8-0.6,1.8-0.6,2.7c0,15.4,0,30.7,0,46.1c0,0.9-0.3,2,0.5,2.7
		c-0.2,13-11.2,27-24.7,32c-7.2,2.7-14.5,2.3-21.8,2.2C311.6,156.6,306.8,156.6,301.9,157.6z M255.3,118.3L255.3,118.3
		c0.2,0.2,0.5,0.5,0.7,0.7c0,0-0.1-0.1-0.1-0.1c0.3,0.3,0.5,0.5,0.8,0.8l0-0.1c0.2,0.3,0.5,0.5,0.7,0.8c0.3,0.2,0.5,0.5,0.8,0.7
		l-0.1-0.1c0.3,0.3,0.5,0.5,0.8,0.8l-0.1-0.1c0.3,0.3,0.5,0.5,0.8,0.8l-0.1-0.1c0.3,0.3,0.6,0.5,0.9,0.8c2,1.8,3.9,3.6,6,5.3
		c5.4,4.5,10.8,4.2,15.3-1c10.6-12.2,21.8-23.8,32.8-35.6c3.5-3.7,7.2-7.2,10.4-11.1c3.8-4.6,3.2-10.5-0.9-13.9
		c-4.5-3.8-9.5-3.4-13.6,1.6c-9.1,10.9-18.9,21.2-28.3,31.8c-2.9,3.2-5.8,6.4-8.8,9.7c-3-2-5-4.6-7.4-6.8c-3.7-3.4-7-7.4-11.1-10.5
		c-3-2.2-6.2-2.7-9.5-0.7c-3.3,2-4.8,5-4.3,8.9c0.5,4.4,3.2,7.2,6.6,9.5c0.3,0.3,0.6,0.6,0.9,0.9c1.2,1.4,2.5,2.8,3.7,4.1
		c0,1,0.5,1.5,1.5,1.5c0.2,0.2,0.5,0.5,0.7,0.7C254.8,117.8,255.1,118.1,255.3,118.3z"/>
	<path class="st0" d="M362.9,123.4c-0.8-0.8-0.5-1.8-0.5-2.7c0-15.4,0-30.7,0-46.1c0-0.9-0.3-2,0.6-2.7c0.6,11.9,0.2,23.7,0.3,35.6
		C363.2,112.7,363.6,118.1,362.9,123.4z"/>
	<path class="st0" d="M301.9,157.6c4.8-0.9,9.6-0.9,14.5,0C311.6,157.8,306.8,157.8,301.9,157.6z"/>
	<path class="st2" d="M264.7,358.2c1.7,0,3.5,0,5.2,0c0.4,0.5,1,0.6,1.6,0.6c16.2,0,32.4,0,48.6,0c1.3,0,2.4-0.1,2.9-1.6l-0.1,0.1
		c0.6,0,1.3,0,1.6-0.8l-0.1,0.1c1.1,0,2.3,0.1,2.1-1.6l-0.1,0.1c3.2-0.7,2.8-3.5,3-5.7c0.3-3.3,0.1-6.7,0.1-10.1
		c0.5-0.3,1.1-0.6,1.6-0.8c14.3-5.7,28.7-11.4,43-17.3c1.9-0.8,3.3-0.9,5.1,0.1c6.9,3.7,13.9,7.2,20.9,10.8
		c15,7.8,30,15.6,44.5,24.3c2.7,7.7,5.5,15.4,8.2,23.1c4.8,13.8,9.5,27.6,14.3,41.3c-1.2,2.2,0,3.7,1.6,5c0.2,0.1,0.2,0.2,0.1,0.4
		c0,0.9-0.3,2,0.8,2.5l-0.1-0.1c-0.1,0.6-0.1,1.2,0.5,1.6c0.1,0.2,0.2,0.4,0.1,0.7c0,0.8-0.2,1.8,0.8,2.3l0,0c0,0.8-0.2,1.8,0.9,2.2
		l-0.1-0.1c-0.1,0.9-0.4,1.9,0.9,2.3l-0.1,0c0,3,1,6,0.7,9c-0.2,0.2-0.4,0.4-0.6,0.6c-0.3,0.2-0.6,0.4-0.9,0.6
		c-0.2,0.1-0.5,0.1-0.7,0.2c-8.3,0-16.7,0-25,0c-1.2,0-2.4-0.4-3.4,0.6c-0.5,0-1,0-1.5,0c-0.9-0.9-1.9-0.9-2.8,0c-0.8,0-1.5,0-2.3,0
		c-1-1-2.2-0.5-3.3-0.5c-0.1,0.4-0.4,0.6-0.8,0.5c-0.4-1.3-1.5-1.3-2.5-1.3c-2.1-0.5-3.6-1.8-5.5-2.8
		c-20.2-10.3-40.5-20.6-60.6-31.1c-25.7-13.5-51.6-26.8-77.6-39.8c-9.5-4.7-18.8-9.6-28.3-14.4C259.8,358.4,262.3,359.4,264.7,358.2
		z"/>
	<path class="st3" d="M259.6,286.8c-3.3-0.3-6.5,0.1-9.8,0.5c-4.4,0.5-9,5.1-9.1,9.6c-0.2,12.1-0.3,24.2,0,36.3
		c0.1,3.4,0.8,6.9,0.2,10.9c-5,0-9.9,0-14.8,0c-0.3-0.3-0.6-0.3-0.9,0c-0.7,0-1.4,0-2,0c-1.3-0.7-2.5-0.7-3.8,0c-5,0-10.1,0-15.1,0
		c-0.3-0.3-0.6-0.3-0.9,0c-2.2-0.3-1.2-2.1-1.2-3.2c-0.1-18.7-0.2-37.4-0.2-56c0-2.7,0.1-5.3-0.4-8c-0.4-1.9,0.1-3.4,1.6-4.9
		c18-17.7,36-35.4,54-53.1c0.3-0.2,0.6-0.4,1.1-0.8c4.8,3.8,9,8.3,13.3,12.6c11.7,11.8,23.2,23.9,35.9,34.6c6.1,5.1,7.2,10.4,7,17.4
		c-0.3,18.9-0.1,37.9-0.1,56.8c0,1.3,0,2.6,0,4.3c-12.4,0-24.5,0-37.1,0c0-4.8-0.3-9.5,0.1-14.2c0.8-10.5,0.5-21.1,0.3-31.6
		c-0.1-6.1-5.3-10.6-12.2-11.1c-1.7-0.1-3.4,0-5.1,0C260.1,286.8,259.9,286.8,259.6,286.8z"/>
	<path class="st2" d="M255.3,448.2c-1,0-2,0-3,0c-2.9-1.3-5.9-0.3-8.8-0.6l0.1,0c-0.3-0.3-0.6-0.5-0.9-0.8c-1.4-0.3-2.2-1.4-3.3-2.2
		c-31-21.1-62-42.3-92.9-63.5c-0.9-0.6-2.2-1-2.6-2.5c14.8-10.1,29.6-20.1,44.4-30.2c0.6,2.7,1.6,5.2,3.6,7.2
		c-0.6,1.3,0.5,0.5,0.8,0.7l-0.1-0.1c0.1,0.4,0.4,0.7,0.9,0.7l-0.1,0c1.4,1.4,3.2,1.5,5,1.5c8.2,0,16.4,0,24.5,0
		c1.6,0.1,3,0.9,4.4,1.6c22.2,11.1,44.4,22.2,66.6,33.3c4.7,2.3,9.3,4.8,14.4,7.4c-5.7,5.1-10.9,10-16,14.9
		c-4.8,4.7-10.1,8.8-15.2,13.2c-7,5.9-13.1,12.9-20.4,18.5C256.1,447.7,255.6,447.7,255.3,448.2z"/>
	<path class="st4" d="M188.3,348.7c-14.8,10.1-29.6,20.1-44.4,30.2c0.3,1.4,1.6,1.8,2.6,2.5c31,21.2,61.9,42.4,92.9,63.5
		c1.1,0.7,1.9,1.9,3.3,2.2c0.3,0.3,0.6,0.5,0.9,0.8c0,0-0.1,0-0.1,0c0,0.2,0.1,0.4,0.1,0.6c-8.5,0-17,0-25.4,0
		c-0.7-0.5-1.5-0.9-2.2-1.4c-0.7-0.6-1.4-1.3-2.2-1.8c-25-17.1-50-34.2-75-51.2c-3-2-6-4-9.1-6c-29.9,19.5-59.9,38.3-88.8,59
		c-2-1.7-2.1-3.8-1.2-6.1c1.8-4.9,3.6-9.9,5.4-14.8c1.3-0.9,2.6-1.7,3.9-2.6c34.2-22.5,68.2-45.4,102.9-67
		c5.6-3.5,11.1-7.1,16.8-10.7c-1.2-1.4-2.6-1.5-3.8-2c-27.3-9.8-54.5-20-81.5-30.6c1.6-4.8,3.2-9.7,4.8-14.5
		c15.9,6,31.8,12.1,47.8,18.1c17.4,6.6,35,12.6,52.3,19.6C188.2,340.3,188.2,344.5,188.3,348.7z"/>
	<path class="st2" d="M41,446.8c28.8-20.7,58.9-39.5,88.8-59c3.1,2,6.1,4,9.1,6c25,17.1,50,34.1,75,51.2c0.8,0.5,1.5,1.2,2.2,1.8
		c-0.6,0.3-0.8,0.8-0.8,1.4c-1.5,0-3,0-4.4,0c-1.4-1-2.9-1-4.3,0c-1,0-2,0-3,0c-0.7-0.9-1.4-0.8-2.1,0c-1,0-2,0-3,0
		c-10.2-1-20.4-1.1-30.5,0c-0.5,0-1,0-1.5,0c-5.1-1.1-10.2-1.1-15.2,0c-0.8,0-1.5,0-2.3,0c-1.2-1.2-2.8-0.6-4.2-0.6
		c-28.5,0-57,0-85.6,0c-5.9,0-11.9,0.4-17.7-0.7C41.2,447,41.1,446.9,41,446.8z"/>
	<path class="st2" d="M83.3,312.9c27,10.6,54.2,20.7,81.5,30.6c1.2,0.4,2.6,0.5,3.8,2c-5.6,3.6-11.2,7.2-16.8,10.7
		c-34.7,21.7-68.7,44.6-102.9,67c-1.3,0.9-2.6,1.7-3.9,2.6c8.7-25.8,17.4-51.6,26.1-77.4c0.1-0.2,0.3-0.4,0.5-0.5
		c1.5,0.1,0.4-1,0.7-1.5c0.9-0.6,0.7-1.5,0.6-2.4l-0.1,0.1c1.1-0.3,0.9-1.3,1-2.1c0.9-0.6,0.7-1.5,0.6-2.3l-0.1,0.1
		c1.4-0.8,2.2-2.1,2.7-3.6c1.9-5.8,3.8-11.6,5.7-17.4c0.5-1.5,1-3-0.1-4.4C82.6,313.8,82.9,313.3,83.3,312.9z"/>
	<path class="st3" d="M123.2,216.1c11.9-11.3,23.9-22.6,36.1-34.1c4.1,3.7,8,7.2,11.8,10.9c7.2,7,14.5,14,22.1,20.6
		c1.3,1.1,2.6,2.2,2.2,4.2c-1.3,8.1-0.5,16.2-0.7,24.3c-0.1,4.8-0.1,9.7,0,14.6c0.1,1.9-0.6,3.1-2,4.4c-5.1,4.8-10.2,9.7-15.2,14.6
		c-1.2,1.1-1.9,2.5-2.3,4.2c-16.7,0-33.3,0-50.4,0C124.8,258.6,125,237.4,123.2,216.1z M158.8,252.4
		C158.8,252.4,158.8,252.5,158.8,252.4c2.4,0.1,4.9,0.1,7.3,0.1c4.3-0.1,6.7-2.4,6.8-6.8c0.1-4.7,0.1-9.5,0-14.2
		c-0.1-4.1-2.8-6.7-6.8-6.9c-3.3-0.2-6.5-0.4-9.8-0.5c-2.3-0.1-4.6-0.2-6.9,0.5c-2.5,0.7-4,2.3-4.1,4.9c-0.1,5.7-0.1,11.4,0,17.1
		c0.1,3.6,2.5,5.6,6.2,5.8C153.9,252.5,156.3,252.4,158.8,252.4z"/>
	<path class="st4" d="M256.6,447.6c7.3-5.6,13.4-12.6,20.4-18.5c5.1-4.3,10.4-8.5,15.2-13.2c5.1-5,10.2-9.9,16-14.9
		c-5-2.6-9.7-5-14.4-7.4c-22.2-11.1-44.4-22.2-66.6-33.3c-1.4-0.7-2.8-1.5-4.4-1.6c-0.1-0.2-0.2-0.4-0.2-0.6c11,0,22.1,0,33.1,0
		c0.4,0.6,1,0.6,1.6,0.7c9.4,4.8,18.8,9.7,28.3,14.4c26,13,51.9,26.3,77.6,39.8c20.1,10.5,40.4,20.8,60.6,31.1
		c1.8,0.9,3.4,2.3,5.5,2.8c0,0.4,0.1,0.9,0.1,1.3c-9.9,0-19.9,0-29.8,0c-0.3-0.6-1-0.5-1.5-0.6c-1.9-1.2-3.8-2.4-5.8-3.5
		c-19.8-10.2-39.5-20.4-59.3-30.6c-3.4-1.8-6.8-3.6-10.3-5.4c-14.7,13.1-29.5,25.8-43.4,39.5c-0.2,0.2-0.4,0.4-0.6,0.6
		c-7.3,0-14.7,0-22,0C256.7,448,256.7,447.8,256.6,447.6z"/>
	<path class="st3" d="M381.1,274.7c-5.8,0.1-11.6,0.6-17.6-0.6c-0.8-2.5-0.4-5.2-0.4-7.8c-0.1-8,0.1-16-0.7-24
		c-0.3-2.7-2.6-5.4-5.7-5.6c-4.1-0.2-8.2,0-12.3,0.4c-1.7,0.2-3,1.5-3.2,3.4c-0.3,2.6-0.6,5.3-0.7,8c-0.3,8.5-0.6,16.9-0.9,25.2
		c-1.8,1-2.8,0-3.7-0.9c-4.6-4.3-9.1-8.7-13.7-13c-1.9-1.7-1.9-3.8-1.9-6c-0.1-7.6,0-15.3-0.1-22.9c0-2.4,0.1-4.8-0.7-7.4
		c10.7-10,21.5-20,32.3-30.1c10.6,10.2,21.6,19.6,31.3,30c-0.7,16.8-1.5,33.4-0.7,50C381.7,273.5,381.3,274,381.1,274.7z"/>
	<path class="st2" d="M398,272.5c5-0.1,9.9-0.2,14.9-0.2c3,0,4,2.3,4.8,4.6c2.9,8.8,5.8,17.6,8.8,26.4c3.5,10.5,7.1,20.9,10.7,31.4
		c-6.1-2.3-12-5.3-17.7-8.4c-12-6.5-24.2-12.6-36.2-19.1c-4-2.2-7.6-2.1-11.7-0.3c-13.9,5.8-28,11.3-42,17c0-11.5,0-22.9,0-33.9
		c1.8-1.4,3.2-1.1,4.5-1c6.6,0.2,13.3,0.2,19.9,0.5c11.4,0.6,22.8,0.2,34.2,0.2c1.6,0,3.2,0.1,4-1.7l0,0.2c0.5,0,0.7-0.3,0.9-0.8
		l-0.1,0.1c3.8-0.7,4.2-3.7,4.5-6.7C397.5,277.9,396.8,275.1,398,272.5z"/>
	<path class="st2" d="M188.2,336.1c-17.3-7-34.9-13-52.3-19.6c-15.9-6-31.9-12.1-47.8-18.1c2.3-7.3,4.7-14.7,7-22
		c0.9-2.9,2.4-4.5,5.8-4.1c3.1,0.3,6.3,0.1,10.1,0.1c0,4.1,0,8,0,11.9c0,6.8,2.9,9.7,9.7,9.7c21.2-0.1,42.5-0.4,63.7-0.5
		c1.1,0,2.2,0,3.4,0c0.8,2.7,0.4,5.3,0.3,7.9c-0.5,0.4-0.6,1-0.6,1.6c0,8.6,0,17.2,0,25.8c0,0.6,0.1,1.2,0.6,1.6c0,0.5,0,1,0,1.5
		c-0.9,0.9-0.9,1.9,0,2.8C188.2,335.2,188.2,335.6,188.2,336.1z"/>
	<path class="st2" d="M279.2,447.6c13.9-13.7,28.7-26.4,43.4-39.5c3.5,1.8,6.9,3.7,10.3,5.4c19.8,10.2,39.5,20.4,59.3,30.6
		c2,1,3.9,2.3,5.8,3.5c-0.8,0-1.7-0.1-2.3,0.8c-3.4-0.1-6.8-0.1-10.2-0.2c-4.3-1-8.7-1-13,0c-1.2,0-2.5,0-3.7,0c-2.6-1-5.3-1-7.9,0
		c-1.2,0-2.5,0-3.7,0c-4.1-1-8.2-1-12.3,0c-2,0-3.9,0-5.9,0c-0.2-0.4-0.4-0.4-0.7,0c-1,0-2,0-3,0c-0.9-0.9-1.9-0.9-2.8,0
		c-2.2,0-4.4,0-6.6,0c-3.6-1-7.2-1-10.9,0c-2.9,0-5.9,0-8.8,0c-3.6-1-7.2-1-10.9,0c-0.8,0-1.5,0-2.3,0c-2.4-1-4.8-1-7.2,0
		c-0.8,0-1.5,0-2.3,0C282.3,447.1,280.7,447.9,279.2,447.6z"/>
	<path class="st4" d="M329.6,323.8c14-5.6,28.1-11.2,42-17c4.1-1.7,7.7-1.9,11.7,0.3c12,6.5,24.2,12.7,36.2,19.1
		c5.8,3.1,11.6,6.1,17.7,8.4c2.5,7.2,4.9,14.5,7.4,21.7c-14.5-8.7-29.5-16.5-44.5-24.3c-6.9-3.6-13.9-7.2-20.9-10.8
		c-1.8-0.9-3.2-0.8-5.1-0.1c-14.3,5.8-28.6,11.5-43,17.3c-0.6,0.2-1.1,0.5-1.6,0.8c-1.3,0.4-0.9,1.5-1,2.3c-0.1,2.1-0.1,4.2-0.2,6.3
		c0-7.8-0.1-15.5-0.1-23.3c0.2,0,0.4-0.1,0.5-0.2C329.1,324.1,329.3,324,329.6,323.8z"/>
	<path class="st5" d="M392.1,287.8c-0.8,1.8-2.4,1.7-4,1.7c-11.4,0-22.8,0.4-34.2-0.2c-6.6-0.4-13.3-0.4-19.9-0.5
		c-1.3,0-2.7-0.3-4.5,1c0,11,0,22.5,0,33.9c-0.2,0.2-0.5,0.3-0.7,0.5c0-8.8,0-17.7-0.2-26.5c0-3,0.5-6-0.4-9c0.3-1.4,1.3-1,2.3-1
		c18.8,0.2,37.7,0.4,56.5,0.5C388.7,288.3,390.4,288,392.1,287.8z"/>
	<path class="st5" d="M41.4,447c5.9,1.1,11.8,0.7,17.7,0.7c28.5,0,57,0,85.6,0c1.4,0,2.9-0.6,4.2,0.6c-31.4,0.1-62.7,0.1-94.1,0.2
		c-2.9,0-5.8,0.1-8.7,0C44.4,448.5,42.6,448.4,41.4,447z"/>
	<path class="st5" d="M323,357.2c-0.5,1.5-1.6,1.6-2.9,1.6c-16.2,0-32.4,0-48.6,0c-0.6,0-1.2-0.1-1.6-0.6c14.4,0,28.7-0.1,43.1-0.1
		C316.3,358,319.7,358.1,323,357.2z"/>
	<path class="st5" d="M82.8,314.4c1.1,1.5,0.6,3,0.1,4.4c-1.9,5.8-3.9,11.6-5.7,17.4c-0.5,1.5-1.3,2.8-2.7,3.6
		C77.2,331.3,80,322.8,82.8,314.4z"/>
	<path class="st3" d="M328.3,288.8c0.9,3,0.4,6,0.4,9c0.1,8.8,0.1,17.7,0.2,26.5c-0.2,0.1-0.3,0.2-0.5,0.2
		C328.3,312.6,328.3,300.7,328.3,288.8z"/>
	<path class="st5" d="M398,272.5c-1.2,2.6-0.5,5.4-0.7,8.1c-0.3,3-0.7,6-4.5,6.7c3.6-3.5,3.3-8.1,3.2-12.6
		C395.9,273.3,395.9,271.9,398,272.5z"/>
	<path class="st5" d="M167.9,448.3c10.2-1.1,20.4-1.1,30.5,0C188.2,448.3,178,448.3,167.9,448.3z"/>
	<path class="st5" d="M222.6,358.2c0.1,0.2,0.2,0.4,0.2,0.6c-8.2,0-16.4,0-24.5,0c-1.8,0-3.6-0.2-5-1.5
		C203.1,358.8,212.9,357.7,222.6,358.2z"/>
	<path class="st5" d="M188.1,330.3c-0.5-0.4-0.6-1-0.6-1.6c0-8.6,0-17.2,0-25.8c0-0.6,0.1-1.2,0.6-1.6
		C188.1,311,188.1,320.6,188.1,330.3z"/>
	<path class="st5" d="M442.5,448.3c1-1,2.3-0.6,3.4-0.6c8.3,0,16.7,0,25,0c-1,1.3-2.5,0.8-3.7,0.8
		C459,448.5,450.8,448.4,442.5,448.3z"/>
	<path class="st5" d="M328.4,347.8c0.1-2.1,0.1-4.2,0.2-6.3c0-0.9-0.3-2,1-2.3c0,3.4,0.2,6.8-0.1,10.1c-0.2,2.2,0.2,5-3,5.7
		C328,352.8,328.4,350.4,328.4,347.8z"/>
	<path class="st5" d="M151.1,448.3c5.1-1.1,10.2-1.1,15.2,0C161.3,448.3,156.2,448.3,151.1,448.3z"/>
	<path class="st5" d="M473.1,446.4c0.4-3.1-0.7-6-0.7-9C473.8,440.3,476.1,443.1,473.1,446.4z"/>
	<path class="st5" d="M372.6,448.3c4.3-1,8.7-1,13,0C381.3,448.3,376.9,448.3,372.6,448.3z"/>
	<path class="st5" d="M344.9,448.3c4.1-1,8.2-1,12.3,0C353.1,448.3,349,448.3,344.9,448.3z"/>
	<path class="st5" d="M295.4,448.3c3.6-1,7.2-1,10.9,0C302.6,448.3,299,448.3,295.4,448.3z"/>
	<path class="st5" d="M315,448.3c3.6-1,7.2-1,10.9,0C322.3,448.3,318.7,448.3,315,448.3z"/>
	<path class="st5" d="M243.7,448.2c-0.1-0.2-0.1-0.4-0.1-0.6c2.9,0.2,5.9-0.7,8.8,0.6C249.4,448.3,246.5,448.3,243.7,448.2z"/>
	<path class="st5" d="M257.4,358.8c-0.6-0.1-1.2-0.1-1.6-0.7c3,0,6,0,8.9,0C262.3,359.4,259.8,358.4,257.4,358.8z"/>
	<path class="st5" d="M360.9,448.3c2.6-1,5.3-1,7.9,0C366.2,448.3,363.6,448.3,360.9,448.3z"/>
	<path class="st5" d="M285.9,448.3c2.4-1,4.8-1,7.2,0C290.7,448.3,288.3,448.3,285.9,448.3z"/>
	<path class="st5" d="M468.7,425.8c-1.6-1.3-2.8-2.8-1.6-5C467.6,422.4,468.1,424.1,468.7,425.8z"/>
	<path class="st5" d="M395.8,448.5c0.5-1,1.4-0.8,2.3-0.8c0.5,0.1,1.2,0,1.5,0.6C398.3,448.1,397.2,450.1,395.8,448.5z"/>
	<path class="st5" d="M279.2,447.6c1.4,0.3,3.1-0.5,4.4,0.7c-1.7,0-3.4,0-5-0.1C278.8,448,279,447.8,279.2,447.6z"/>
	<path class="st5" d="M206.5,448.3c1.4-1,2.9-1,4.3,0C209.3,448.3,207.9,448.3,206.5,448.3z"/>
	<path class="st5" d="M215.2,448.3c0-0.6,0.2-1.1,0.8-1.4c0.7,0.5,1.5,0.9,2.2,1.4C217.2,448.2,216.2,448.3,215.2,448.3z"/>
	<path class="st5" d="M429.4,448.3c0-0.4-0.1-0.9-0.1-1.3c1.1,0,2.1,0,2.5,1.3C431,448.2,430.2,448.2,429.4,448.3z"/>
	<path class="st1" d="M219.5,344c1.3-0.7,2.5-0.7,3.8,0C222,344,220.8,344,219.5,344z"/>
	<path class="st5" d="M326.5,354.9c0.2,1.7-1,1.7-2.1,1.6C325.1,356,325.8,355.5,326.5,354.9z"/>
	<path class="st5" d="M332.5,448.3c0.9-0.9,1.9-0.9,2.8,0C334.4,448.3,333.5,448.3,332.5,448.3z"/>
	<path class="st5" d="M188.1,334.7c-0.9-0.9-0.9-1.9,0-2.8C188.1,332.8,188.1,333.7,188.1,334.7z"/>
	<path class="st1" d="M381.1,274.7c0.2-0.7,0.6-1.1,1.3-1.3C382.7,274.5,382.3,275,381.1,274.7z"/>
	<path class="st5" d="M432.6,447.7c1.1,0,2.3-0.5,3.3,0.5C434.8,448.2,433.5,449,432.6,447.7z"/>
	<path class="st5" d="M438.2,448.3c0.9-0.9,1.9-0.9,2.8,0C440,448.3,439.1,448.3,438.2,448.3z"/>
	<path class="st5" d="M472.6,437.4c-1.2-0.4-0.9-1.4-0.9-2.3C472.5,435.7,472.4,436.6,472.6,437.4z"/>
	<path class="st5" d="M73,344c0.1,0.9,0.3,1.7-0.6,2.4l0,0c0.1-0.2,0.1-0.5,0-0.7C72.5,345.1,72.3,344.4,73,344z"/>
	<path class="st5" d="M73.9,342c-0.1,0.8,0.2,1.8-1,2.1c0.2-0.7,0.3-1.4,0.5-2.1l0.2,0L73.9,342L73.9,342z"/>
	<path class="st5" d="M74.5,339.7c0.1,0.9,0.3,1.7-0.6,2.3c0,0,0,0,0,0c0-0.2,0-0.5,0-0.7C73.9,340.7,73.8,340,74.5,339.7z"/>
	<path class="st5" d="M201.4,448.3c0.7-0.8,1.4-0.9,2.1,0C202.8,448.3,202.1,448.3,201.4,448.3z"/>
	<path class="st5" d="M72.4,346.4c-0.3,0.4,0.7,1.6-0.7,1.5c0.1-0.5,0.2-1,0.3-1.4c0,0,0.2,0,0.2,0L72.4,346.4L72.4,346.4z"/>
	<path class="st5" d="M469.6,428.7c-1.2-0.5-0.8-1.6-0.8-2.5C469.6,426.9,469.4,427.8,469.6,428.7z"/>
	<path class="st5" d="M471,433.1c-1-0.5-0.7-1.4-0.8-2.3C471.2,431.3,470.7,432.3,471,433.1z"/>
	<path class="st5" d="M471.8,435.2c-1.1-0.4-0.9-1.4-0.9-2.2C471.8,433.5,471.6,434.5,471.8,435.2z"/>
	<path class="st5" d="M256.6,447.6c0.1,0.2,0.1,0.4,0,0.6c-0.4,0-0.9,0-1.3,0C255.6,447.7,256.1,447.7,256.6,447.6z"/>
	<path class="st5" d="M324.5,356.5c-0.3,0.8-0.9,0.8-1.6,0.8C323.2,356.6,323.9,356.7,324.5,356.5z"/>
	<path class="st5" d="M192.7,356.5c-0.3-0.2-1.4,0.6-0.8-0.7C192.2,356.1,192.5,356.3,192.7,356.5z"/>
	<path class="st5" d="M470.1,430.1c-0.6-0.4-0.6-1-0.5-1.6C470.2,428.9,470.1,429.5,470.1,430.1z"/>
	<path class="st5" d="M471.7,447.5c0.3-0.2,0.6-0.4,0.9-0.6C472.4,447.3,472.1,447.6,471.7,447.5z"/>
	<path class="st1" d="M225.3,344.1c0.3-0.3,0.6-0.3,0.9,0C225.9,344.1,225.6,344.1,225.3,344.1z"/>
	<path class="st5" d="M193.5,357.2c-0.5,0-0.7-0.3-0.9-0.7C193,356.6,193.6,356.5,193.5,357.2z"/>
	<path class="st1" d="M203.4,344c0.3-0.3,0.6-0.3,0.9,0C204,344,203.7,344,203.4,344z"/>
	<path class="st2" d="M73.8,341.3c0,0.2,0,0.5,0,0.7c0,0-0.2,0-0.2,0s-0.2,0-0.2,0C73.5,341.8,73.7,341.5,73.8,341.3z"/>
	<path class="st5" d="M392.9,287.2c-0.1,0.4-0.4,0.7-0.9,0.8C392,287.3,392.5,287.4,392.9,287.2z"/>
	<path class="st5" d="M338.3,448.3c0.2-0.4,0.4-0.4,0.7,0l-0.3,0.1L338.3,448.3z"/>
	<path class="st1" d="M259.6,286.8c0.3,0,0.5,0,0.8,0C260.1,287.1,259.9,287.1,259.6,286.8z"/>
	<path class="st2" d="M72.4,346.4l-0.2,0c0,0-0.2,0-0.2,0c0.2-0.3,0.3-0.5,0.5-0.8C72.5,345.9,72.5,346.1,72.4,346.4z"/>
	<path class="st2" d="M254.6,117.6c-0.2-0.2-0.5-0.5-0.7-0.7c-0.5-0.5-1-1-1.5-1.5c-1.2-1.4-2.5-2.8-3.7-4.1
		c-0.3-0.3-0.6-0.6-0.9-0.9c-3.4-2.4-6.1-5.2-6.6-9.5c-0.4-3.8,1-6.8,4.3-8.9c3.3-2,6.5-1.5,9.5,0.7c4.1,3.1,7.3,7.1,11.1,10.5
		c2.4,2.2,4.4,4.8,7.4,6.8c3-3.3,6-6.5,8.8-9.7c9.4-10.6,19.3-20.8,28.3-31.8c4.1-5,9-5.4,13.6-1.6c4.1,3.4,4.7,9.3,0.9,13.9
		c-3.2,3.9-7,7.4-10.4,11.1c-11,11.8-22.2,23.4-32.8,35.6c-4.5,5.2-9.9,5.5-15.3,1c-2-1.7-4-3.5-6-5.3c-0.3-0.3-0.6-0.5-0.9-0.8
		l0.1,0.1c-0.3-0.3-0.5-0.5-0.8-0.8l0.1,0.1c-0.3-0.3-0.5-0.5-0.8-0.8l0.1,0.1c-0.1-0.2-0.1-0.4-0.1-0.6c-0.3-0.2-0.5-0.5-0.8-0.7
		c-0.2,0-0.4,0-0.6-0.1l0,0.1c-0.3-0.3-0.5-0.5-0.8-0.8l0.1,0.1c-0.3-0.3-0.5-0.5-0.8-0.8c0,0,0.1,0.1,0.1,0.1
		C255.1,118.1,254.8,117.8,254.6,117.6z"/>
	<path class="st0" d="M252.4,115.4c0.5,0.5,1,1,1.5,1.5C252.8,116.9,252.4,116.4,252.4,115.4z"/>
	<path class="st0" d="M258.2,121.2c0.3,0.3,0.5,0.5,0.8,0.8C258.7,121.7,258.5,121.4,258.2,121.2z"/>
	<path class="st0" d="M258.2,120.6c0,0.2,0.1,0.4,0.1,0.6c-0.3-0.2-0.5-0.5-0.8-0.7l0,0C257.7,120.5,258,120.5,258.2,120.6z"/>
	<path class="st0" d="M256.8,119.7c0.2,0.1,0.4,0.1,0.6,0.1c0.1,0.2,0.1,0.4,0.2,0.6l0,0C257.2,120.2,257,120,256.8,119.7z"/>
	<path class="st0" d="M258.9,121.9c0.3,0.3,0.5,0.5,0.8,0.8C259.5,122.4,259.2,122.2,258.9,121.9z"/>
	<path class="st0" d="M256,119c0.3,0.3,0.5,0.5,0.8,0.8C256.5,119.5,256.3,119.3,256,119z"/>
	<path class="st0" d="M255.3,118.3c0.3,0.3,0.5,0.5,0.8,0.8C255.8,118.8,255.6,118.5,255.3,118.3z"/>
	<path class="st0" d="M254.6,117.6c0.3,0.3,0.5,0.5,0.8,0.8C255.1,118.1,254.8,117.8,254.6,117.6z"/>
	<path class="st5" d="M247.8,110.4c0.3,0.3,0.6,0.6,0.9,0.9C248.4,111,248.1,110.7,247.8,110.4z"/>
	<path class="st0" d="M259.7,122.6c0.3,0.3,0.6,0.5,0.9,0.8C260.3,123.1,260,122.9,259.7,122.6z"/>
	<path class="st5" d="M243.6,447.7c-0.3-0.3-0.6-0.5-0.9-0.8C243,447.2,243.3,447.5,243.6,447.7z"/>
	<path class="st0" d="M158.8,252.4c-2.4,0-4.9,0.1-7.3,0c-3.7-0.1-6.1-2.2-6.2-5.8c-0.2-5.7-0.1-11.4,0-17.1c0-2.6,1.5-4.2,4.1-4.9
		c2.3-0.7,4.6-0.5,6.9-0.5c3.3,0.1,6.5,0.3,9.8,0.5c4.1,0.2,6.8,2.8,6.8,6.9c0.1,4.7,0.1,9.5,0,14.2c-0.1,4.4-2.5,6.7-6.8,6.8
		C163.6,252.5,161.2,252.5,158.8,252.4C158.8,252.5,158.8,252.4,158.8,252.4z"/>
	<path class="st5" d="M257.5,120.5c0-0.2-0.1-0.4-0.2-0.6c0.3,0.2,0.5,0.5,0.8,0.7C258,120.5,257.7,120.5,257.5,120.5z"/>
</g>
</svg>
